<svg xmlns="http://www.w3.org/2000/svg" viewBox="0 0 128 128">
  <defs>
    <linearGradient id="bg" x1="0%" y1="0%" x2="100%" y2="100%">
      <stop offset="0%" style="stop-color:#4F46E5"/>
      <stop offset="100%" style="stop-color:#7C3AED"/>
    </linearGradient>
  </defs>

  <!-- Rounded square background -->
  <rect x="8" y="8" width="112" height="112" rx="24" fill="url(#bg)"/>

  <!-- Document/clipboard shape -->
  <rect x="32" y="28" width="64" height="80" rx="8" fill="white" opacity="0.95"/>

  <!-- Clipboard clip at top -->
  <rect x="48" y="20" width="32" height="16" rx="4" fill="white"/>
  <rect x="52" y="24" width="24" height="8" rx="2" fill="#4F46E5"/>

  <!-- Progress lines with checkmarks -->
  <!-- Line 1 - completed -->
  <rect x="44" y="48" width="40" height="6" rx="3" fill="#4F46E5" opacity="0.3"/>
  <circle cx="80" cy="51" r="8" fill="#10B981"/>
  <path d="M76 51 L79 54 L84 48" stroke="white" stroke-width="2.5" fill="none" stroke-linecap="round" stroke-linejoin="round"/>

  <!-- Line 2 - completed -->
  <rect x="44" y="66" width="40" height="6" rx="3" fill="#4F46E5" opacity="0.3"/>
  <circle cx="80" cy="69" r="8" fill="#10B981"/>
  <path d="M76 69 L79 72 L84 66" stroke="white" stroke-width="2.5" fill="none" stroke-linecap="round" stroke-linejoin="round"/>

  <!-- Line 3 - in progress -->
  <rect x="44" y="84" width="28" height="6" rx="3" fill="#4F46E5" opacity="0.6"/>
  <circle cx="80" cy="87" r="8" fill="#F59E0B" opacity="0.9"/>
  <rect x="78" y="84" width="4" height="6" rx="1" fill="white"/>
</svg>
